<?xml version="1.0" standalone="no"?><svg xmlns="http://www.w3.org/2000/svg" viewBox="0 0 1440 320"><path fill="#0099ff" fill-opacity="0.5" d="M0,64L26.7,90.7C53.3,117,107,171,160,197.3C213.3,224,267,224,320,208C373.3,192,427,160,480,149.3C533.3,139,587,149,640,149.3C693.3,149,747,139,800,149.3C853.3,160,907,192,960,218.7C1013.3,245,1067,267,1120,261.3C1173.3,256,1227,224,1280,181.3C1333.3,139,1387,85,1413,58.7L1440,32L1440,320L1413.3,320C1386.7,320,1333,320,1280,320C1226.7,320,1173,320,1120,320C1066.7,320,1013,320,960,320C906.7,320,853,320,800,320C746.7,320,693,320,640,320C586.7,320,533,320,480,320C426.7,320,373,320,320,320C266.7,320,213,320,160,320C106.7,320,53,320,27,320L0,320Z"></path></svg>